<?xml version="1.0" standalone="no"?>
<!DOCTYPE svg PUBLIC "-//W3C//DTD SVG 20010904//EN"
 "http://www.w3.org/TR/2001/REC-SVG-20010904/DTD/svg10.dtd">
<svg version="1.0" xmlns="http://www.w3.org/2000/svg"
 width="50.000000pt" height="50.000000pt" viewBox="0 0 50.000000 50.000000"
 preserveAspectRatio="xMidYMid meet">

<g transform="translate(0.000000,50.000000) scale(0.100000,-0.100000)"
fill="#000000" stroke="none">
<path d="M105 435 c-50 -49 -15 -135 55 -135 41 0 80 39 80 80 0 41 -39 80
-80 80 -19 0 -40 -9 -55 -25z"/>
<path d="M280 275 c0 -36 -4 -65 -8 -65 -5 0 -21 13 -37 30 -51 53 -129 49
-160 -9 -10 -21 -15 -58 -15 -121 l0 -90 95 0 95 0 0 33 c0 26 -10 42 -45 77
-25 24 -45 49 -45 54 0 6 19 -9 43 -32 51 -50 73 -52 112 -12 16 17 39 30 52
30 13 0 34 11 47 25 13 14 28 25 35 25 7 0 11 22 11 60 l0 60 -90 0 -90 0 0
-65z m160 5 l0 -40 -70 0 -70 0 0 40 0 40 70 0 70 0 0 -40z"/>
</g>
</svg>
