<?xml version="1.0" standalone="no"?>
<!DOCTYPE svg PUBLIC "-//W3C//DTD SVG 20010904//EN"
 "http://www.w3.org/TR/2001/REC-SVG-20010904/DTD/svg10.dtd">
<svg version="1.0" xmlns="http://www.w3.org/2000/svg"
 width="50.000000pt" height="50.000000pt" viewBox="0 0 50.000000 50.000000"
 preserveAspectRatio="xMidYMid meet">

<g transform="translate(0.000000,50.000000) scale(0.100000,-0.100000)"
fill="#000000" stroke="none">
<path d="M105 435 c-50 -49 -15 -135 55 -135 41 0 80 39 80 80 0 41 -39 80
-80 80 -19 0 -40 -9 -55 -25z m95 -15 c11 -11 20 -29 20 -40 0 -26 -34 -60
-60 -60 -26 0 -60 34 -60 60 0 26 34 60 60 60 11 0 29 -9 40 -20z"/>
<path d="M280 275 c0 -36 -4 -65 -8 -65 -5 0 -21 13 -37 30 -51 53 -129 49
-160 -9 -10 -21 -15 -58 -15 -121 l0 -90 95 0 95 0 0 40 c0 22 -4 40 -10 40
-5 0 -10 -13 -10 -30 l0 -30 -75 0 -75 0 0 85 c0 78 2 88 25 110 35 36 68 32
120 -17 l46 -41 22 21 c17 16 36 22 71 22 42 0 47 -2 36 -15 -7 -8 -25 -15
-39 -15 -17 0 -38 -11 -56 -30 -16 -16 -33 -30 -39 -30 -6 0 -30 19 -53 42
-26 26 -43 36 -43 27 0 -22 72 -89 96 -89 11 0 33 13 49 30 16 17 39 30 52 30
13 0 34 11 47 25 13 14 28 25 35 25 7 0 11 22 11 60 l0 60 -90 0 -90 0 0 -65z
m160 5 l0 -40 -70 0 -70 0 0 40 0 40 70 0 70 0 0 -40z"/>
</g>
</svg>
